<svg width="24" height="24" viewBox="0 0 24 24" fill="none" xmlns="http://www.w3.org/2000/svg">
<path d="M10.6282 0.0766737C5.21528 0.680517 0.819008 4.9782 0.107117 10.3779C-0.901541 18.0298 5.35422 24.5396 12.9316 23.9646C15.719 23.753 18.3281 22.5074 20.3724 20.6009L20.548 20.4372C20.75 20.2489 20.761 19.9325 20.5726 19.7305L19.8904 18.9989C19.702 18.797 19.3857 18.7859 19.1837 18.9743L18.8179 19.3154C16.544 21.4356 13.4224 22.3895 10.2733 21.8532C5.81012 21.0931 2.37906 17.3039 2.03054 12.7899C1.56971 6.82067 6.38472 1.83247 12.2965 2.00427C17.7475 2.16275 22 6.81439 22 12.2677V13C22 14.1688 20.9929 15.1062 19.8006 14.9903C18.7616 14.8892 18 13.9553 18 12.9113V8.50002C18 8.22383 17.7762 8 17.5 8H16.5C16.2993 8 16.1287 8.12 16.0492 8.29077C15.043 7.19328 13.6028 6.5 12 6.5C8.9673 6.5 6.50003 8.96727 6.50003 12C6.50003 15.0327 8.9673 17.5 12 17.5C13.9104 17.5 15.5949 16.5199 16.5812 15.0372C17.3238 16.2782 18.7035 17.096 20.274 16.9908C22.3976 16.8485 24 14.9871 24 12.8588V12C24 4.93133 17.8562 -0.72967 10.6282 0.0766737ZM12 15.5C10.0703 15.5 8.5 13.9297 8.5 12C8.5 10.0703 10.0703 8.49997 12 8.49997C13.9297 8.49997 15.5 10.0703 15.5 12C15.5 13.9297 13.9297 15.5 12 15.5Z" fill="#2C3E50"/>
</svg>
