<svg width="24" height="21" viewBox="0 0 24 21" fill="none" xmlns="http://www.w3.org/2000/svg">
<path d="M10.85 9.7492C10.654 9.58206 10.338 9.58383 10.143 9.75622C5.88098 13.5599 3.02497 16.5182 1.04399 20.3831C0.930973 20.6036 1.043 20.8626 1.295 20.9615C1.36199 20.9877 1.43197 21 1.49999 21C1.68997 21 1.87297 20.9037 1.95697 20.741C3.87698 16.9951 6.67396 14.1015 10.858 10.3678C11.051 10.1963 11.047 9.91807 10.85 9.7492Z" fill="black"/>
<path d="M22.5 0C11.748 0 3 7.6545 3 17.0625C3 17.304 3.22402 17.5 3.50002 17.5C10.682 17.5 17.263 14.0586 20.676 8.51989C20.759 8.38425 20.755 8.21978 20.665 8.08853C20.574 7.95642 20.411 7.87504 20.235 7.87504H18.383L21.704 6.21428C21.81 6.16178 21.89 6.07692 21.929 5.97626C22.64 4.16588 23 2.30212 23 0.437514C23 0.196014 22.776 0 22.5 0ZM21.043 5.53699L16.252 7.93189C16.055 8.03164 15.959 8.2329 16.017 8.42453C16.075 8.61701 16.273 8.75003 16.5 8.75003H19.375C16.123 13.5004 10.34 16.4684 4.00702 16.6189C4.27102 8.04476 12.193 1.113 21.993 0.881139C21.942 2.44736 21.623 4.011 21.043 5.53699Z" fill="black"/>
</svg>
