<svg width="10" height="14" viewBox="0 0 10 14" fill="none" xmlns="http://www.w3.org/2000/svg">
<path fill-rule="evenodd" clip-rule="evenodd" d="M8.00001 -6.67852e-07C7.56066 -0.00116152 7.13323 0.142888 6.78421 0.409748C6.43519 0.676607 6.18412 1.05132 6.07007 1.47561C5.95601 1.8999 5.98535 2.34999 6.15353 2.75588C6.32171 3.16177 6.61929 3.50071 7.00001 3.72V5L5.00001 7L3.00001 5V3.72C3.38072 3.50071 3.67831 3.16177 3.84648 2.75588C4.01466 2.34999 4.044 1.8999 3.92994 1.47561C3.81589 1.05132 3.56483 0.676607 3.2158 0.409748C2.86678 0.142888 2.43936 -0.00116152 2.00001 -6.67852e-07C1.56065 -0.00116152 1.13323 0.142888 0.784209 0.409748C0.435186 0.676607 0.184125 1.05132 0.0700683 1.47561C-0.0439881 1.8999 -0.0146467 2.34999 0.15353 2.75588C0.321706 3.16177 0.619291 3.50071 1.00001 3.72V5.5L4.00001 8.5V10.28C3.61929 10.4993 3.32171 10.8382 3.15353 11.2441C2.98535 11.65 2.95601 12.1001 3.07007 12.5244C3.18412 12.9487 3.43519 13.3234 3.78421 13.5903C4.13323 13.8571 4.56066 14.0012 5.00001 14C5.43936 14.0012 5.86678 13.8571 6.2158 13.5903C6.56483 13.3234 6.81589 12.9487 6.92994 12.5244C7.044 12.1001 7.01466 11.65 6.84648 11.2441C6.67831 10.8382 6.38072 10.4993 6.00001 10.28V8.5L9.00001 5.5V3.72C9.38072 3.50071 9.67831 3.16177 9.84648 2.75588C10.0147 2.34999 10.044 1.8999 9.92994 1.47561C9.81589 1.05132 9.56483 0.676607 9.2158 0.409748C8.86678 0.142888 8.43936 -0.00116152 8.00001 -6.67852e-07ZM2.00001 3.2C1.34001 3.2 0.800006 2.65 0.800006 2C0.800006 1.35 1.35001 0.799999 2.00001 0.799999C2.65001 0.799999 3.20001 1.35 3.20001 2C3.20001 2.65 2.65001 3.2 2.00001 3.2ZM5.00001 13.2C4.34001 13.2 3.80001 12.65 3.80001 12C3.80001 11.35 4.35001 10.8 5.00001 10.8C5.65001 10.8 6.20001 11.35 6.20001 12C6.20001 12.65 5.65001 13.2 5.00001 13.2ZM8.00001 3.2C7.34001 3.2 6.80001 2.65 6.80001 2C6.80001 1.35 7.35001 0.799999 8.00001 0.799999C8.65001 0.799999 9.20001 1.35 9.20001 2C9.20001 2.65 8.65001 3.2 8.00001 3.2Z" fill="#586069"/>
</svg>
