<svg width="24" height="24" viewBox="0 0 24 24" fill="none" xmlns="http://www.w3.org/2000/svg">
<path d="M12 0C5.40472 0 0 5.4516 0 12.0469C0 18.6039 5.35547 24 12 24C18.6363 24 24 18.6119 24 12.0469C24 5.4516 18.5953 0 12 0ZM14.1094 22.3828C13.4344 22.5234 12.7172 22.5938 12 22.5938C11.2828 22.5938 10.5656 22.5234 9.89062 22.3828V19.0922C9.89062 18.3047 10.1016 18.0234 10.3828 17.6437C10.526 17.48 10.6124 17.3331 11.2546 16.3641L10.1719 16.1953C7.38739 15.7875 6.29059 14.339 5.85461 13.214C5.29211 11.7094 5.58746 9.82489 6.60004 8.62976C6.75476 8.44684 6.88129 8.13739 6.76886 7.81403C6.55774 7.16711 6.58594 6.14062 6.72656 5.74677C7.47217 5.85333 8.23883 6.38745 8.87823 6.77344C9.17285 6.94537 9.32739 6.89996 9.46875 6.91406C9.98254 6.80713 10.784 6.5484 12.0141 6.5484C12.7734 6.5484 13.5751 6.66083 14.3626 6.88586C14.5034 6.88257 14.7297 7.00232 15.1219 6.77344C15.7903 6.36621 16.5309 5.8504 17.2734 5.74677C17.4141 6.14062 17.4423 7.16711 17.2313 7.81403C17.1187 8.13739 17.2452 8.44684 17.4001 8.62976C18.4125 9.82507 18.7079 11.7094 18.1454 13.214C17.7094 14.339 16.6126 15.7875 13.8281 16.1953L12.7454 16.3641C13.4092 17.3657 13.4791 17.4858 13.6174 17.6437C13.8984 18.0234 14.1094 18.3047 14.1094 19.0922V22.3828ZM15.5156 21.975V19.0922C15.5156 18.2906 15.3468 17.7563 15.1218 17.3624C17.2593 16.786 18.7782 15.5202 19.4531 13.7062C20.1703 11.7938 19.847 9.51562 18.6515 7.94055C18.8626 6.99847 18.8626 5.49371 18.3563 4.79059C18.1313 4.48132 17.8218 4.3125 17.4282 4.3125C17.4141 4.3125 17.4141 4.3125 17.4141 4.3125C16.3237 4.37146 15.4655 4.92059 14.5453 5.47961C13.7016 5.25458 12.8438 5.14215 11.9859 5.14215C11.1141 5.14215 10.2422 5.26868 9.46893 5.47961C8.50031 4.89551 7.65033 4.37 6.52972 4.3125C6.17816 4.3125 5.86871 4.48132 5.64368 4.79059C5.13757 5.49371 5.13757 6.99847 5.34851 7.94055C4.15302 9.51562 3.82965 11.8077 4.54688 13.7062C5.2218 15.5202 6.74066 16.786 8.87823 17.3624C8.70374 17.6677 8.56567 18.0615 8.51129 18.5945C8.07953 18.7434 7.70508 18.7919 7.35681 18.6896C6.9895 18.581 6.70331 18.3358 6.45465 17.9176C5.89618 16.9794 4.94495 16.2134 3.86188 16.313L3.98547 17.7138C4.487 17.6678 4.98615 18.1985 5.24542 18.6359C5.67316 19.3563 6.24939 19.8287 6.95856 20.0381C7.48499 20.1932 7.96619 20.1896 8.48438 20.079V21.975C4.39215 20.5406 1.40625 16.6313 1.40625 12.0469C1.40625 6.22504 6.17816 1.40625 12 1.40625C17.8218 1.40625 22.5938 6.22504 22.5938 12.0469C22.5938 16.6313 19.6078 20.5406 15.5156 21.975Z" fill="#2C3E50"/>
</svg>
