<svg width="24" height="24" viewBox="0 0 24 24" fill="none" xmlns="http://www.w3.org/2000/svg">
<path d="M17.5034 0H6.49657C2.9143 0 0 2.9143 0 6.49657V17.5036C0 21.0857 2.9143 24 6.49657 24H17.5036C21.0857 24 24 21.0857 24 17.5036V6.49657C24 2.9143 21.0857 0 17.5034 0V0ZM22.593 17.5036C22.593 20.3098 20.3098 22.593 17.5034 22.593H6.49657C3.69012 22.593 1.40698 20.3098 1.40698 17.5036V6.49657C1.40698 3.69012 3.69012 1.40698 6.49657 1.40698H17.5036C20.3098 1.40698 22.593 3.69012 22.593 6.49657V17.5036Z" fill="#2C3E50"/>
<path d="M12 5.43768C8.38145 5.43768 5.43767 8.38146 5.43767 12C5.43767 15.6185 8.38145 18.5623 12 18.5623C15.6185 18.5623 18.5623 15.6185 18.5623 12C18.5623 8.38146 15.6185 5.43768 12 5.43768V5.43768ZM12 17.1553C9.15745 17.1553 6.84465 14.8427 6.84465 12C6.84465 9.15746 9.15745 6.84466 12 6.84466C14.8427 6.84466 17.1553 9.15746 17.1553 12C17.1553 14.8427 14.8427 17.1553 12 17.1553V17.1553Z" fill="#2C3E50"/>
<path d="M18.7192 3.10712C17.6499 3.10712 16.7801 3.97705 16.7801 5.0462C16.7801 6.11553 17.6499 6.98547 18.7192 6.98547C19.7885 6.98547 20.6585 6.11553 20.6585 5.0462C20.6585 3.97687 19.7885 3.10712 18.7192 3.10712ZM18.7192 5.5783C18.4259 5.5783 18.1871 5.33953 18.1871 5.0462C18.1871 4.75268 18.4259 4.5141 18.7192 4.5141C19.0127 4.5141 19.2515 4.75268 19.2515 5.0462C19.2515 5.33953 19.0127 5.5783 18.7192 5.5783Z" fill="#2C3E50"/>
</svg>
