<svg width="24" height="24" viewBox="0 0 24 24" fill="none" xmlns="http://www.w3.org/2000/svg">
<g clip-path="url(#clip0)">
<path d="M18.59 24C18.693 24 23.352 23.999 23.25 23.999C23.664 23.999 24 23.663 24 23.249C23.65 15.392 25.842 7.10101 17.662 7.10101C16.089 7.10101 14.836 7.63801 13.933 8.34801C13.933 6.88701 12.354 7.69501 8.709 7.47801C8.295 7.47801 7.959 7.81401 7.959 8.22801C8.261 22.394 7.285 23.999 8.709 23.999H13.369C14.722 23.999 13.861 22.091 14.119 15.811C14.119 13.217 14.869 12.709 16.165 12.709C17.599 12.709 17.84 13.705 17.84 15.937C18.097 22.104 17.242 24 18.59 24ZM16.165 11.209C11.674 11.209 12.619 16.147 12.619 22.499H9.459V8.97801H12.433V10.276C12.433 10.996 13.53 11.35 13.912 10.626C14.404 9.69201 15.682 8.60101 17.662 8.60101C21.189 8.60101 22.5 10.334 22.5 14.997V22.5H19.34C19.34 15.356 20.096 11.209 16.165 11.209Z" fill="#2C3E50"/>
<path d="M1.12199 7.47902C-0.298008 7.47902 0.673992 9.06402 0.371992 23.25C0.371992 23.664 0.707992 24 1.12199 24H5.78699C7.20699 24 6.23499 22.415 6.53699 8.22902C6.53699 6.93402 4.65599 7.69802 1.12199 7.47902ZM5.03699 22.5H1.87199V8.97902H5.03699V22.5Z" fill="#2C3E50"/>
<path d="M3.45196 0C-1.12404 0 -1.09604 6.929 3.45196 6.929C7.99696 6.929 8.03296 0 3.45196 0ZM3.45196 5.429C0.883965 5.429 0.859965 1.5 3.45196 1.5C6.04896 1.5 6.01596 5.429 3.45196 5.429Z" fill="#2C3E50"/>
</g>
<defs>
<clipPath id="clip0">
<rect width="24" height="24" fill="white"/>
</clipPath>
</defs>
</svg>
