<svg width="20" height="20" viewBox="0 0 20 20" fill="none" xmlns="http://www.w3.org/2000/svg">
<path d="M20 10.9009C19.8248 12.7963 19.1135 14.6025 17.9493 16.1084C16.785 17.6142 15.216 18.7573 13.4257 19.404C11.6355 20.0506 9.69813 20.174 7.84032 19.7598C5.98251 19.3455 4.28109 18.4108 2.93516 17.0648C1.58923 15.7189 0.654449 14.0175 0.240202 12.1597C-0.174046 10.3019 -0.050628 8.3645 0.596015 6.57428C1.24266 4.78405 2.38578 3.215 3.89162 2.05074C5.39746 0.88648 7.20374 0.175155 9.0991 0C7.98942 1.50126 7.45544 3.35094 7.59427 5.21263C7.7331 7.07432 8.53553 8.82434 9.85559 10.1444C11.1757 11.4645 12.9257 12.2669 14.7874 12.4057C16.6491 12.5446 18.4987 12.0106 20 10.9009Z" fill="#3A63B3"/>
</svg>
