<svg width="24" height="20" viewBox="0 0 24 20" fill="none" xmlns="http://www.w3.org/2000/svg">
<path d="M24 2.82646C22.4903 2.89604 22.5233 2.89036 22.3526 2.90465L23.2467 0.35124C23.2467 0.35124 20.4558 1.37791 19.7483 1.56157C17.8901 -0.108538 15.1282 -0.182329 13.1536 1.03129C11.5366 2.02537 10.6686 3.73247 10.9581 5.72777C7.81109 5.29106 5.15954 3.7993 3.0661 1.28453L2.40399 0.489302L1.90924 1.39787C1.28394 2.54594 1.07629 3.85863 1.3244 5.09404C1.42621 5.60087 1.59924 6.08427 1.83893 6.53691L1.27093 6.31682L1.20355 7.26585C1.13525 8.2299 1.45624 9.35527 2.06232 10.2759C2.23297 10.5352 2.4527 10.8199 2.7312 11.1008L2.43768 11.0558L2.79584 12.1432C3.2666 13.572 4.24438 14.6774 5.5133 15.2919C4.24603 15.8297 3.22229 16.1728 1.53955 16.7264L0 17.2325L1.422 18.0099C1.96417 18.3064 3.88 19.2964 5.77295 19.5934C9.98071 20.2533 14.7182 19.7159 17.9075 16.8435C20.5939 14.4242 21.4753 10.9827 21.2922 7.40135C21.2646 6.85917 21.4131 6.34172 21.7104 5.94456C22.3061 5.14934 23.9963 2.83177 24 2.82646ZM20.586 5.10228C20.0922 5.76164 19.8448 6.60374 19.8891 7.47313C20.0738 11.0856 19.0909 13.8871 16.9675 15.7995C14.4869 18.0336 10.4859 18.9104 5.99066 18.2053C5.17657 18.0777 4.3352 17.7919 3.63885 17.5064C5.04968 17.021 6.13916 16.5883 7.89862 15.7555L10.3548 14.593L7.643 14.4194C6.34405 14.3363 5.26245 13.7068 4.59759 12.6847C4.95062 12.6642 5.29101 12.607 5.62994 12.5126L8.21631 11.7922L5.60834 11.1535C4.34106 10.8432 3.61871 10.0849 3.23584 9.5034C2.98444 9.12126 2.82019 8.72978 2.72168 8.36888C2.98315 8.43901 3.28802 8.489 3.77966 8.5377L6.19354 8.77647L4.28101 7.28453C2.90295 6.2097 2.35071 4.59489 2.75555 3.04252C7.05633 7.50334 12.106 7.16807 12.6143 7.28599C12.5024 6.19926 12.4995 6.1967 12.4702 6.09324C11.8193 3.79216 13.2458 2.62376 13.8893 2.22825C15.2333 1.40227 17.3666 1.27775 18.8443 2.63859C19.1634 2.93229 19.595 3.04783 19.999 2.94749C20.3615 2.8574 20.6591 2.76201 20.9504 2.65819L20.3439 4.39L21.1181 4.39055C20.972 4.58647 20.7967 4.82103 20.586 5.10228Z" fill="#2C3E50"/>
</svg>
